<?xml version="1.0" encoding="iso-8859-1"?>
<!-- Generator: Adobe Illustrator 19.0.0, SVG Export Plug-In . SVG Version: 6.00 Build 0)  -->
<svg version="1.1" id="Capa_1" xmlns="http://www.w3.org/2000/svg" xmlns:xlink="http://www.w3.org/1999/xlink" x="0px" y="0px"
	 viewBox="0 0 512 512" style="enable-background:new 0 0 512 512;" xml:space="preserve">
<g>
	<g>
		<path d="M10.667,0C4.779,0,0,4.779,0,10.667V96c0,5.888,4.779,10.667,10.667,10.667c217.621,0,394.667,177.045,394.667,394.667
			c0,5.888,4.779,10.667,10.667,10.667h85.333c5.888,0,10.667-4.779,10.667-10.667C512,224.896,287.104,0,10.667,0z
			 M426.539,490.667C420.928,269.76,242.24,91.072,21.333,85.461V21.44c256.213,5.632,463.595,213.013,469.227,469.227H426.539z"/>
	</g>
</g>
<g>
	<g>
		<path d="M10.667,170.667C4.779,170.667,0,175.445,0,181.333v85.333c0,5.888,4.779,10.667,10.667,10.667
			c123.52,0,224,100.48,224,224c0,5.888,4.779,10.667,10.667,10.667h85.333c5.888,0,10.667-4.779,10.667-10.667
			C341.333,318.997,193.003,170.667,10.667,170.667z M255.765,490.667c-5.461-126.805-107.627-228.971-234.432-234.453v-64.043
			c162.112,5.547,292.949,136.384,298.475,298.496H255.765z"/>
	</g>
</g>
<g>
	<g>
		<path d="M74.667,362.667C33.493,362.667,0,396.16,0,437.333S33.493,512,74.667,512s74.667-33.493,74.667-74.667
			S115.84,362.667,74.667,362.667z M74.667,490.667c-29.397,0-53.333-23.936-53.333-53.333S45.269,384,74.667,384
			S128,407.936,128,437.333S104.064,490.667,74.667,490.667z"/>
	</g>
</g>
<g>
</g>
<g>
</g>
<g>
</g>
<g>
</g>
<g>
</g>
<g>
</g>
<g>
</g>
<g>
</g>
<g>
</g>
<g>
</g>
<g>
</g>
<g>
</g>
<g>
</g>
<g>
</g>
<g>
</g>
</svg>
